<svg width="41" height="41" viewBox="0 0 41 41" fill="none" xmlns="http://www.w3.org/2000/svg">
<g clip-path="url(#clip0_1_428)">
<path d="M32.6762 26.7399C32.6762 18.2155 16.9607 18.7722 16.9607 13.6255C16.9607 11.1344 19.344 9.91771 22.1084 9.91771C26.7573 9.91771 27.5851 12.9044 29.6906 12.9044C31.1818 12.9044 31.8995 11.9655 31.8995 10.9133C31.8995 8.46771 28.1918 6.6166 24.6362 5.97549V3.61549C24.6362 2.90854 24.3554 2.23055 23.8555 1.73066C23.3556 1.23077 22.6776 0.949936 21.9706 0.949936C21.2637 0.949936 20.5857 1.23077 20.0858 1.73066C19.5859 2.23055 19.3051 2.90854 19.3051 3.61549V6.05882C15.4284 6.94105 12.094 9.62994 12.094 14.0133C12.094 22.201 27.8073 21.8699 27.8073 27.621C27.8073 29.6133 25.6507 31.6055 22.1084 31.6055C16.7962 31.6055 15.0262 28.0099 12.8684 28.0099C11.8173 28.0099 10.8773 28.8944 10.8773 30.2277C10.8773 32.3455 14.4273 34.8944 19.3084 35.6066L19.3051 35.6233V38.2866C19.3251 38.9805 19.6149 39.6393 20.1128 40.123C20.6107 40.6068 21.2776 40.8774 21.9718 40.8774C22.666 40.8774 23.3328 40.6068 23.8307 40.123C24.3287 39.6393 24.6184 38.9805 24.6384 38.2866V35.6233C24.6384 35.5922 24.6229 35.5677 24.6206 35.5399C29.0129 34.7199 32.6762 31.8566 32.6762 26.7399Z" fill="white"/>
</g>
<defs>
<clipPath id="clip0_1_428">
<rect width="40" height="40" fill="white" transform="translate(0.665039 0.952148)"/>
</clipPath>
</defs>
</svg>
