<svg width="15" height="14" viewBox="0 0 15 14" fill="none" xmlns="http://www.w3.org/2000/svg">
<path d="M5.93945 1.0459C5.62695 1.3584 5.6582 1.82715 5.93945 2.13965L9.7207 5.70215H0.751953C0.314453 5.70215 0.00195312 6.0459 0.00195312 6.45215V7.45215C0.00195312 7.88965 0.314453 8.20215 0.751953 8.20215H9.7207L5.93945 11.7959C5.6582 12.1084 5.6582 12.5771 5.93945 12.8896L6.62695 13.5771C6.93945 13.8584 7.4082 13.8584 7.68945 13.5771L13.7832 7.4834C14.0645 7.20215 14.0645 6.7334 13.7832 6.4209L7.68945 0.358398C7.4082 0.0771484 6.93945 0.0771484 6.62695 0.358398L5.93945 1.0459Z" fill="#183B56"/>
</svg>
