<svg width="80" height="81" viewBox="0 0 80 81" fill="none" xmlns="http://www.w3.org/2000/svg">
<circle opacity="0.1" cx="40" cy="40.9521" r="40" fill="#FF8345"/>
<path d="M54.4552 36.337C54.4552 35.6897 54.98 35.1649 55.6273 35.1649C56.2746 35.1649 56.7994 35.6897 56.7994 36.337V51.892C56.7994 55.1287 54.1756 57.7525 50.9389 57.7525H29.0599C25.8232 57.7525 23.1994 55.1287 23.1994 51.892V30.0129C23.1994 26.7763 25.8232 24.1525 29.0599 24.1525H43.1355C43.7828 24.1525 44.3076 24.6772 44.3076 25.3246C44.3076 25.9719 43.7828 26.4967 43.1355 26.4967H29.0599C27.1179 26.4967 25.5436 28.071 25.5436 30.0129V51.892C25.5436 53.834 27.1179 55.4083 29.0599 55.4083H50.9389C52.8809 55.4083 54.4552 53.834 54.4552 51.892V36.337Z" fill="#FF8345"/>
<path fill-rule="evenodd" clip-rule="evenodd" d="M36.8144 38.2823L42.6881 44.1208L56.2397 30.5692C56.987 29.8219 56.987 28.6103 56.2397 27.8629L53.0898 24.7131C52.3425 23.9658 51.1309 23.9658 50.3836 24.7131L36.8144 38.2823ZM41.1596 45.4514C41.3083 45.4236 41.4458 45.3542 41.5565 45.2517L35.6845 39.4149C35.5911 39.5222 35.5277 39.6527 35.5014 39.7932L34.414 45.6054C34.3105 46.1582 34.7947 46.6423 35.3474 46.5389L41.1596 45.4514Z" fill="#FF8345"/>
</svg>
