<svg width="80" height="81" viewBox="0 0 80 81" fill="none" xmlns="http://www.w3.org/2000/svg">
<circle opacity="0.1" cx="40" cy="40.9521" r="40" fill="#FF8345"/>
<path fill-rule="evenodd" clip-rule="evenodd" d="M37.253 29.5881L34.3994 29.8959V44.0211L37.3328 44.3415L48.8699 48.0391C49.1057 48.1144 49.3518 48.1527 49.5994 48.1527C50.9248 48.1527 51.9994 47.0782 51.9994 45.7527V28.1531C51.9994 27.9045 51.9608 27.6575 51.8849 27.4209C51.4806 26.1586 50.1294 25.4631 48.8672 25.8675L47.1994 26.4018V34.5524C47.1994 34.9942 46.8412 35.3524 46.3994 35.3524C45.9575 35.3524 45.5994 34.9942 45.5994 34.5524V26.9143L37.253 29.5881ZM32.7996 43.8467V30.0688L28.1991 30.565C25.3552 30.8718 23.1996 33.2724 23.1996 36.1327V37.7766C23.1996 40.6341 25.3511 43.0333 28.1917 43.3435L32.7996 43.8467Z" fill="#FF8345"/>
<path fill-rule="evenodd" clip-rule="evenodd" d="M55.9997 36.9518C55.9997 35.3036 55.0451 33.8711 53.5997 33.01V40.8937C55.0451 40.0326 55.9997 38.6 55.9997 36.9518ZM28.0184 44.9329C27.7469 44.9033 27.4804 44.8588 27.2195 44.8004L30.4323 53.0272C30.7919 53.948 31.6793 54.5541 32.6678 54.5541H33.5631C33.7057 54.5541 33.8481 54.5414 33.9884 54.5161C35.2929 54.2812 36.16 53.0333 35.9251 51.7288L34.8355 45.6774L28.0184 44.9329Z" fill="#FF8345"/>
</svg>
