<svg width="81" height="81" viewBox="0 0 81 81" fill="none" xmlns="http://www.w3.org/2000/svg">
<circle opacity="0.1" cx="40.665" cy="40.9521" r="40" fill="#FF8345"/>
<path d="M32.3317 24.2855C30.4984 24.2855 28.9984 25.7855 28.9984 27.6188C28.9984 29.4522 30.4984 30.9522 32.3317 30.9522C34.165 30.9522 35.665 29.4688 35.665 27.6188C35.665 25.7688 34.1817 24.2855 32.3317 24.2855ZM28.9984 32.6188C27.1484 32.6188 25.665 34.1022 25.665 35.9522V45.9522H28.9984V57.6188H37.3317V40.2855L41.5484 47.6188H45.615L47.3317 45.3855V57.6188H53.9984V49.2855H55.665V44.2855C55.665 42.4355 54.1817 40.9522 52.3317 40.9522H48.165C47.165 40.9522 46.2817 41.3855 45.665 42.0855C45.115 42.7855 44.5317 43.5522 43.9984 44.2855H43.4817L37.3317 33.7188C37.065 33.2522 36.0317 32.6188 34.8317 32.6188H28.9984ZM50.665 34.2855C49.2817 34.2855 48.165 35.4022 48.165 36.7855C48.165 38.1688 49.2817 39.2855 50.665 39.2855C52.0484 39.2855 53.165 38.1688 53.165 36.7855C53.165 35.4022 52.0484 34.2855 50.665 34.2855Z" fill="#FF8345"/>
</svg>
