<svg width="81" height="81" viewBox="0 0 81 81" fill="none" xmlns="http://www.w3.org/2000/svg">
<circle opacity="0.1" cx="40.332" cy="40.9521" r="40" fill="#FF8345"/>
<path fill-rule="evenodd" clip-rule="evenodd" d="M57.1314 46.0265C56.4823 45.2243 55.6643 44.5644 54.7314 44.1008V40.9524C54.7314 32.7786 48.5053 26.6008 40.3314 26.6008C32.1576 26.6008 25.9314 32.7786 25.9314 40.9524V44.1008C24.9986 44.5644 24.1806 45.2243 23.5314 46.0265V40.9524C23.5314 31.4531 30.8321 24.2008 40.3314 24.2008C49.8307 24.2008 57.1314 31.4531 57.1314 40.9524V46.0265ZM28.4024 44.9994C28.3559 45.2433 28.3316 45.495 28.3316 45.7524V55.3524C28.3316 55.6098 28.3559 55.8615 28.4024 56.1053C25.6541 55.7479 23.5316 53.398 23.5316 50.5524C23.5316 47.7067 25.6541 45.3568 28.4024 44.9994ZM52.3319 55.3524C52.3319 55.6098 52.3076 55.8615 52.2612 56.1053C55.0094 55.7479 57.1319 53.398 57.1319 50.5524C57.1319 47.7067 55.0094 45.3568 52.2612 44.9994C52.3076 45.2433 52.3319 45.495 52.3319 45.7524V55.3524Z" fill="#FF8345"/>
<path fill-rule="evenodd" clip-rule="evenodd" d="M33.9321 43.3517H32.3321C31.0066 43.3517 29.9321 44.4262 29.9321 45.7517V55.3517C29.9321 56.6772 31.0066 57.7517 32.3321 57.7517H33.9321C35.2576 57.7517 36.3321 56.6772 36.3321 55.3517V45.7517C36.3321 44.4262 35.2576 43.3517 33.9321 43.3517ZM48.3318 43.3518H46.7318C45.4063 43.3518 44.3318 44.4264 44.3318 45.7518V55.3518C44.3318 56.6773 45.4063 57.7518 46.7318 57.7518H48.3318C49.6572 57.7518 50.7318 56.6773 50.7318 55.3518V45.7518C50.7318 44.4264 49.6572 43.3518 48.3318 43.3518Z" fill="#FF8345"/>
</svg>
