<svg width="81" height="81" viewBox="0 0 81 81" fill="none" xmlns="http://www.w3.org/2000/svg">
<circle opacity="0.1" cx="40.9971" cy="40.9521" r="40" fill="#FF8345"/>
<path fill-rule="evenodd" clip-rule="evenodd" d="M32.503 30.5522L33.8938 27.7714C34.0207 27.537 34.2265 27.2038 34.4884 26.8639C34.826 26.4257 35.1676 26.0966 35.5515 25.9094C35.7572 25.809 35.9726 25.7522 36.1974 25.7522H45.7974C46.0221 25.7522 46.2376 25.809 46.4433 25.9094C46.8272 26.0966 47.1688 26.4257 47.5064 26.8639C47.7683 27.2038 47.9741 27.537 48.1129 27.7944L49.4918 30.5522H52.1974C55.2902 30.5522 57.7974 33.0594 57.7974 36.1522V50.5522C57.7974 53.645 55.2902 56.1522 52.1974 56.1522H29.7974C26.7046 56.1522 24.1974 53.645 24.1974 50.5522V36.1522C24.1974 33.0594 26.7046 30.5522 29.7974 30.5522H32.503ZM30.5976 38.5525C31.4812 38.5525 32.1976 37.8361 32.1976 36.9525C32.1976 36.0688 31.4812 35.3525 30.5976 35.3525C29.7139 35.3525 28.9976 36.0688 28.9976 36.9525C28.9976 37.8361 29.7139 38.5525 30.5976 38.5525ZM48.1976 42.5525C48.1976 46.5289 44.9741 49.7525 40.9976 49.7525C37.0212 49.7525 33.7976 46.5289 33.7976 42.5525C33.7976 38.576 37.0212 35.3525 40.9976 35.3525C44.9741 35.3525 48.1976 38.576 48.1976 42.5525Z" fill="#FF8345"/>
<path fill-rule="evenodd" clip-rule="evenodd" d="M40.9972 48.152C44.0899 48.152 46.5972 45.6448 46.5972 42.552C46.5972 39.4592 44.0899 36.952 40.9972 36.952C37.9044 36.952 35.3972 39.4592 35.3972 42.552C35.3972 45.6448 37.9044 48.152 40.9972 48.152Z" fill="#FF8345"/>
</svg>
