<svg width="15" height="14" viewBox="0 0 15 14" fill="none" xmlns="http://www.w3.org/2000/svg">
<path d="M6.43555 1.0459C6.12305 1.3584 6.1543 1.82715 6.43555 2.13965L10.2168 5.70215H1.24805C0.810547 5.70215 0.498047 6.0459 0.498047 6.45215V7.45215C0.498047 7.88965 0.810547 8.20215 1.24805 8.20215H10.2168L6.43555 11.7959C6.1543 12.1084 6.1543 12.5771 6.43555 12.8896L7.12305 13.5771C7.43555 13.8584 7.9043 13.8584 8.18555 13.5771L14.2793 7.4834C14.5605 7.20215 14.5605 6.7334 14.2793 6.4209L8.18555 0.358398C7.9043 0.0771484 7.43555 0.0771484 7.12305 0.358398L6.43555 1.0459Z" fill="white"/>
</svg>
